<mxfile host="app.diagrams.net" modified="2023-08-30T14:18:50.805Z" agent="Mozilla/5.0 (Windows NT 10.0; Win64; x64) AppleWebKit/537.36 (KHTML, like Gecko) Chrome/116.0.0.0 Safari/537.36" version="21.7.1" etag="qBbxgpdP4_Gy6ad7gAgg" type="github">
  <diagram name="Страница — 1" id="gheL0uvHc3FxgcjV4ogS">
    <mxGraphModel>
      <root>
        <mxCell id="0" />
        <mxCell id="1" parent="0" />
      </root>
    </mxGraphModel>
  </diagram>
</mxfile>
